<?xml version="1.0" standalone="no"?>
<!DOCTYPE svg PUBLIC "-//W3C//DTD SVG 20010904//EN"
 "http://www.w3.org/TR/2001/REC-SVG-20010904/DTD/svg10.dtd">
<svg version="1.0" xmlns="http://www.w3.org/2000/svg"
 width="146.000000pt" height="146.000000pt" viewBox="0 0 146.000000 146.000000"
 preserveAspectRatio="xMidYMid meet">

<g transform="translate(0.000000,146.000000) scale(0.100000,-0.100000)"
fill="#000000" stroke="none">
<path d="M133 1353 c-22 -4 -23 -9 -23 -104 l0 -99 100 0 100 0 0 105 0 105
-77 -1 c-43 -1 -88 -4 -100 -6z m152 -103 l0 -75 -75 0 -75 0 -3 78 -3 78 78
-3 78 -3 0 -75z"/>
<path d="M203 1293 c-43 -4 -43 -4 -43 -44 l0 -39 45 0 45 0 0 45 c0 25 -1 44
-2 43 -2 -1 -22 -3 -45 -5z"/>
<path d="M350 1345 c0 -8 7 -15 15 -15 8 0 15 -7 15 -15 0 -9 -7 -18 -15 -21
-21 -8 -21 -84 0 -84 10 0 14 9 11 30 -3 24 0 30 15 30 11 0 19 -7 19 -15 0
-8 7 -15 15 -15 28 0 15 40 -25 80 -44 44 -50 47 -50 25z"/>
<path d="M417 1353 c-11 -10 -8 -23 6 -23 6 0 21 -10 33 -23 17 -18 20 -33 18
-89 -1 -53 1 -68 12 -68 9 0 14 11 14 31 0 24 4 30 18 27 12 -2 18 -15 20 -46
5 -71 22 -46 22 33 0 72 -12 99 -23 54 -8 -31 -31 -18 -35 19 -2 24 1 32 12
32 11 0 16 9 16 30 0 34 -15 40 -23 10 -3 -11 -10 -20 -17 -20 -7 0 -14 9 -17
20 -5 19 -42 28 -56 13z"/>
<path d="M596 1352 c-7 -12 5 -52 15 -52 5 0 9 -7 9 -15 0 -18 -27 -20 -33 -2
-2 6 -7 9 -11 6 -4 -4 9 -23 29 -44 20 -20 40 -33 43 -30 4 4 -1 11 -11 16
-21 12 -23 39 -2 39 8 0 15 7 15 15 0 8 -7 15 -15 15 -8 0 -15 7 -15 15 0 8 7
15 15 15 9 0 18 -7 21 -15 4 -8 10 -15 15 -15 5 0 9 7 9 15 0 8 -7 15 -15 15
-8 0 -15 7 -15 15 0 16 -45 22 -54 7z"/>
<path d="M690 1345 c0 -9 9 -15 25 -15 14 0 28 -7 31 -15 10 -25 24 -17 24 15
0 28 -2 30 -40 30 -29 0 -40 -4 -40 -15z"/>
<path d="M810 1324 c0 -28 -3 -35 -15 -30 -21 8 -19 -10 5 -34 20 -20 47 -19
35 1 -4 5 3 9 14 9 17 0 21 -6 21 -30 0 -20 5 -30 15 -30 10 0 15 10 15 34 0
26 -9 44 -39 75 -22 23 -42 41 -45 41 -3 0 -6 -16 -6 -36z"/>
<path d="M1030 1345 c0 -9 9 -15 25 -15 16 0 25 6 25 15 0 9 -9 15 -25 15 -16
0 -25 -6 -25 -15z"/>
<path d="M1154 1351 c-2 -2 -4 -49 -4 -103 l0 -98 105 0 106 0 -3 103 -3 102
-98 0 c-54 0 -101 -2 -103 -4z m176 -101 l0 -81 -77 3 -78 3 -3 78 -3 77 81 0
80 0 0 -80z"/>
<path d="M1243 1293 c-31 -4 -33 -7 -33 -44 l0 -39 45 0 45 0 0 45 c0 30 -4
44 -12 43 -7 0 -28 -3 -45 -5z"/>
<path d="M907 1323 c-12 -11 -8 -23 8 -23 8 0 15 7 15 15 0 16 -12 20 -23 8z"/>
<path d="M967 1323 c-15 -14 -6 -23 23 -23 17 0 30 -4 30 -10 0 -5 0 -13 0
-17 0 -4 -18 -6 -40 -4 -39 2 -40 1 -40 -28 0 -17 5 -31 10 -31 6 0 10 7 10
16 0 11 8 14 32 12 38 -4 49 -27 18 -35 -22 -6 -22 -7 -5 -19 11 -9 15 -19 11
-31 -7 -17 -8 -17 -20 0 -7 9 -18 17 -25 17 -22 0 -10 -28 28 -68 30 -31 49
-41 78 -44 27 -2 39 -8 41 -20 3 -14 -3 -18 -27 -18 -17 0 -31 -4 -31 -10 0
-5 5 -10 10 -10 6 0 10 -9 10 -20 0 -11 -7 -20 -15 -20 -8 0 -15 7 -15 15 0 9
-9 15 -25 15 -52 0 -19 -84 36 -92 36 -5 34 -26 -3 -30 -20 -2 -32 -8 -30 -16
1 -7 -5 -15 -13 -18 -24 -9 -18 -24 10 -24 16 0 25 6 25 15 0 8 5 15 11 15 20
0 59 -44 59 -67 0 -13 5 -23 10 -23 16 0 12 -27 -5 -34 -8 -3 -15 -15 -15 -26
0 -21 -33 -60 -50 -60 -5 0 -10 14 -10 30 0 20 5 30 15 30 8 0 15 7 15 15 0 8
-7 15 -15 15 -8 0 -15 7 -15 15 0 8 7 15 15 15 8 0 15 7 15 16 0 13 -11 15
-57 13 -56 -3 -58 -2 -61 24 -3 21 -9 27 -29 27 -16 0 -27 7 -30 20 -3 11 -11
20 -18 20 -7 0 -15 7 -19 15 -4 11 -13 14 -30 9 -19 -4 -26 -1 -31 15 -3 12
-13 21 -21 21 -8 0 -14 7 -14 15 0 8 -4 15 -10 15 -16 0 -12 -22 7 -35 21 -16
9 -35 -23 -35 -27 0 -32 -15 -9 -24 8 -3 15 -10 15 -16 0 -5 -7 -10 -15 -10
-8 0 -15 -7 -15 -15 0 -9 9 -15 25 -15 13 0 28 -8 34 -17 5 -10 13 -14 18 -10
4 5 0 14 -10 21 -9 7 -17 18 -17 25 0 16 30 13 36 -4 4 -8 12 -15 20 -15 9 0
14 -11 14 -30 0 -29 -1 -30 -50 -30 -38 0 -50 4 -50 15 0 22 -42 19 -63 -5 -9
-11 -17 -31 -17 -45 0 -20 5 -25 25 -25 16 0 25 -6 25 -15 0 -8 -4 -15 -10
-15 -16 0 -12 -19 10 -42 11 -12 23 -18 27 -14 4 4 0 12 -10 17 -30 17 -21 41
16 37 26 -2 33 -8 35 -30 3 -21 9 -27 30 -30 22 -2 28 -9 30 -35 4 -37 -20
-46 -37 -16 -5 10 -13 14 -18 10 -4 -5 0 -13 10 -18 12 -7 17 -23 17 -55 0
-50 22 -59 28 -11 2 15 10 27 18 27 10 0 14 13 14 50 0 48 14 67 26 35 4 -9
19 -15 35 -15 26 0 29 4 29 30 0 41 28 41 37 0 4 -22 11 -30 27 -30 28 0 59
-37 61 -72 1 -21 -3 -28 -17 -28 -10 0 -18 7 -18 15 0 11 -12 15 -45 15 -33 0
-45 4 -45 15 0 8 -7 15 -15 15 -21 0 -19 -12 6 -34 17 -14 19 -20 8 -26 -16
-11 -29 -4 -29 16 0 9 -11 14 -30 14 -27 0 -30 -3 -30 -29 0 -26 4 -30 33 -33
26 -2 33 -8 35 -28 2 -14 10 -29 18 -33 9 -5 12 -17 8 -33 -5 -18 -2 -24 10
-24 9 0 16 7 16 15 0 21 22 19 43 -5 21 -25 22 -24 -8 -56 -21 -22 -26 -24
-31 -10 -7 19 -35 22 -31 4 1 -7 -5 -13 -13 -13 -10 0 -16 12 -18 34 -3 33 -4
33 -43 27 -30 -5 -41 -3 -45 9 -10 25 -34 18 -34 -10 0 -16 6 -25 15 -25 8 0
15 -7 15 -15 0 -8 7 -15 15 -15 8 0 15 -7 15 -15 0 -8 7 -15 15 -15 8 0 15 7
15 16 0 9 7 14 18 12 12 -3 16 -12 14 -31 -2 -18 2 -27 11 -27 14 0 27 -28 27
-57 0 -18 -29 -16 -36 2 -7 17 -34 21 -34 5 0 -5 7 -10 15 -10 8 0 15 -7 15
-15 0 -10 10 -15 30 -15 27 0 30 3 30 30 0 27 3 30 30 30 46 0 36 18 -12 22
-31 2 -44 8 -46 20 -3 15 4 18 42 18 45 0 46 1 46 31 0 24 4 30 18 27 13 -3
17 -13 17 -46 0 -27 4 -42 13 -42 7 0 15 -7 18 -15 10 -25 24 -17 24 15 0 32
22 42 37 16 4 -8 19 -16 33 -18 19 -2 26 -10 28 -31 4 -35 20 -35 24 0 5 46
32 35 36 -14 4 -51 32 -62 32 -13 0 20 5 30 15 30 9 0 15 9 15 25 0 16 -6 25
-15 25 -10 0 -15 10 -15 30 0 20 -5 30 -15 30 -8 0 -15 -7 -15 -15 0 -22 -22
-18 -47 9 -30 31 -33 109 -5 104 10 -2 18 -14 20 -31 3 -25 7 -27 48 -27 l44
0 0 46 0 46 -44 -6 c-49 -8 -56 0 -56 60 0 30 -3 34 -25 34 -16 0 -25 -6 -25
-15 0 -8 7 -15 16 -15 11 0 14 -8 12 -32 -2 -18 -7 -31 -12 -28 -5 3 -12 -4
-16 -16 -6 -15 -16 -21 -37 -20 -24 1 -28 6 -31 34 -2 20 -9 32 -18 32 -8 0
-14 7 -14 15 0 8 7 15 15 15 20 0 19 20 -2 36 -17 13 -17 15 1 29 18 14 18 15
-13 42 -39 35 -40 53 -1 53 27 0 30 3 30 30 0 32 26 43 36 15 4 -8 17 -15 30
-15 21 0 24 4 24 40 0 22 -4 40 -10 40 -5 0 -10 -14 -10 -31 0 -24 -4 -30 -17
-27 -14 2 -19 15 -21 51 -2 26 -7 47 -13 47 -12 0 -49 37 -49 50 0 6 7 10 15
10 8 0 15 7 15 16 0 9 7 14 18 12 12 -2 18 -15 20 -46 4 -48 22 -58 22 -12 0
32 26 43 36 15 12 -30 24 -14 24 30 0 46 -14 61 -23 25 -3 -13 -10 -18 -21
-14 -20 8 -21 34 -1 34 8 0 15 7 15 15 0 11 -12 15 -45 15 -27 0 -45 5 -45 11
0 7 -7 17 -17 24 -25 18 -7 35 39 35 31 0 41 -4 45 -20 3 -11 12 -20 19 -20 8
0 14 -7 14 -15 0 -10 10 -15 30 -15 l30 0 0 -60 c0 -47 3 -60 15 -60 11 0 15
12 15 44 0 30 5 46 15 50 8 3 15 17 15 31 0 16 -6 25 -15 25 -8 0 -15 7 -15
15 0 12 -13 15 -60 15 -40 0 -62 4 -67 14 -4 8 -19 16 -33 18 -14 1 -26 11
-28 21 -3 15 5 17 58 17 45 0 62 -4 66 -15 4 -9 19 -15 35 -15 19 0 29 5 29
15 0 8 7 15 15 15 9 0 15 9 15 25 0 16 -6 25 -15 25 -8 0 -15 -7 -15 -15 0 -8
-7 -15 -15 -15 -8 0 -15 -7 -15 -16 0 -9 -7 -14 -17 -12 -25 5 -28 29 -4 35
37 9 23 23 -24 23 -33 0 -45 -4 -45 -15 0 -24 -52 -18 -77 9 -13 13 -23 33
-23 44 0 11 -7 22 -15 26 -8 3 -15 12 -15 21 0 8 7 15 15 15 10 0 15 10 15 31
0 20 -4 29 -12 27 -7 -3 -13 -11 -13 -19 0 -30 -30 -14 -33 19 -2 18 -7 30
-12 27 -5 -3 -14 4 -20 15 -10 19 -40 27 -53 13z m115 -176 c-3 -19 1 -27 12
-27 18 0 22 -25 5 -35 -6 -4 -13 3 -16 15 -4 16 -12 20 -32 18 -18 -2 -27 2
-29 15 -2 10 3 17 12 17 9 0 16 7 16 16 0 9 7 14 18 12 12 -2 16 -11 14 -31z
m-29 -202 c1 -5 -6 -11 -15 -13 -11 -2 -18 3 -18 13 0 17 30 18 33 0z m95 -32
c2 -8 -5 -13 -17 -13 -12 0 -21 6 -21 16 0 18 31 15 38 -3z m-248 -148 c0 -8
7 -15 15 -15 8 0 15 -7 15 -15 0 -8 -7 -15 -15 -15 -9 0 -15 -9 -15 -21 0 -42
-25 -12 -28 34 -2 37 0 47 12 47 9 0 16 -7 16 -15z m-155 -25 c3 -5 4 -14 0
-20 -8 -13 -35 -1 -35 16 0 16 26 19 35 4z m279 -25 c0 -16 -5 -31 -12 -31
-25 -3 -26 -5 -8 -19 12 -9 16 -20 12 -32 -7 -17 -8 -17 -20 -1 -6 9 -23 18
-36 20 -20 2 -26 10 -28 36 -2 24 1 32 12 32 9 0 16 7 16 16 0 11 8 14 32 12
28 -3 32 -7 32 -33z m-216 -49 c3 -13 -1 -17 -14 -14 -11 2 -20 11 -22 22 -3
13 1 17 14 14 11 -2 20 -11 22 -22z m62 4 c0 -11 -7 -20 -15 -20 -8 0 -15 9
-15 20 0 11 7 20 15 20 8 0 15 -9 15 -20z m60 -31 c0 -24 -23 -21 -28 4 -2 10
3 17 12 17 10 0 16 -9 16 -21z m125 -29 c0 -22 -29 -18 -33 3 -3 14 1 18 15
15 10 -2 18 -10 18 -18z m-25 -155 c0 -8 -9 -15 -20 -15 -11 0 -20 7 -20 15 0
8 9 15 20 15 11 0 20 -7 20 -15z m55 -25 c3 -5 4 -14 0 -20 -8 -13 -35 -1 -35
16 0 16 26 19 35 4z m-27 -37 c2 -8 -5 -13 -17 -13 -12 0 -21 6 -21 16 0 18
31 15 38 -3z m277 -33 c0 -22 -29 -18 -33 3 -3 14 1 18 15 15 10 -2 18 -10 18
-18z m-247 -27 c2 -8 -5 -13 -17 -13 -12 0 -21 6 -21 16 0 18 31 15 38 -3z
m120 -29 l3 -42 -46 -4 c-26 -2 -48 -1 -51 1 -2 2 -4 24 -4 48 l0 44 48 -3 47
-3 3 -41z m60 -68 c3 -13 -1 -17 -14 -14 -11 2 -20 11 -22 22 -3 13 1 17 14
14 11 -2 20 -11 22 -22z"/>
<path d="M1150 305 c0 -8 5 -15 10 -15 6 0 10 7 10 15 0 8 -4 15 -10 15 -5 0
-10 -7 -10 -15z"/>
<path d="M720 1286 c0 -9 5 -16 10 -16 6 0 10 4 10 9 0 6 -4 13 -10 16 -5 3
-10 -1 -10 -9z"/>
<path d="M690 1259 c0 -7 8 -18 18 -25 16 -12 16 -13 0 -19 -10 -4 -18 -11
-18 -16 0 -14 41 -51 48 -44 4 4 -1 11 -11 16 -21 12 -23 39 -2 39 8 0 15 4
15 9 0 5 -7 11 -15 15 -8 3 -15 12 -15 21 0 8 -4 15 -10 15 -5 0 -10 -5 -10
-11z"/>
<path d="M780 1220 c0 -5 5 -10 10 -10 6 0 10 5 10 10 0 6 -4 10 -10 10 -5 0
-10 -4 -10 -10z"/>
<path d="M900 1175 c0 -16 6 -25 15 -25 9 0 15 9 15 25 0 16 -6 25 -15 25 -9
0 -15 -9 -15 -25z"/>
<path d="M600 1169 c0 -6 7 -17 15 -26 16 -15 11 -38 -6 -28 -5 4 -9 -20 -9
-54 0 -34 4 -61 10 -61 6 0 10 7 10 15 0 8 7 15 15 15 8 0 15 4 15 9 0 5 -7
11 -15 15 -8 3 -15 12 -15 21 0 20 58 21 66 0 11 -27 24 -16 24 20 0 34 -34
84 -48 71 -3 -4 3 -13 14 -20 14 -11 16 -17 7 -26 -14 -15 -33 -5 -33 16 0 8
-5 12 -11 9 -6 -4 -13 2 -16 14 -5 22 -23 29 -23 10z"/>
<path d="M350 1160 c0 -5 7 -10 16 -10 8 0 12 5 9 10 -3 6 -10 10 -16 10 -5 0
-9 -4 -9 -10z"/>
<path d="M410 1140 c0 -27 -3 -30 -30 -30 -32 0 -40 -14 -15 -24 18 -7 20 -36
2 -36 -7 0 -25 14 -40 31 -15 18 -31 29 -35 25 -4 -4 1 -12 11 -17 34 -19 20
-39 -28 -39 -57 0 -59 -18 -3 -22 31 -2 44 -8 46 -20 2 -11 -3 -18 -12 -18 -9
0 -16 -7 -16 -15 0 -11 12 -15 45 -15 l45 0 0 -60 c0 -47 3 -60 15 -60 8 0 15
-7 15 -15 0 -11 12 -15 45 -15 43 0 45 -1 45 -30 0 -33 -23 -42 -34 -14 -4 10
-14 14 -26 11 -11 -3 -23 0 -28 6 -4 7 -19 23 -35 36 l-27 24 0 -31 c0 -22 5
-32 15 -32 16 0 21 -25 6 -34 -11 -7 -61 36 -61 52 0 7 -4 12 -10 12 -16 0
-12 -22 8 -36 16 -13 16 -15 0 -28 -24 -18 -23 -24 9 -28 14 -2 28 -9 31 -15
6 -20 -64 -17 -72 3 -3 8 -11 12 -16 9 -7 -4 -1 -16 15 -31 24 -22 34 -24 126
-24 99 0 119 -8 84 -34 -9 -7 -12 -19 -9 -33 7 -26 24 -31 24 -8 0 20 59 20
66 0 4 -10 20 -15 45 -15 37 0 39 2 39 30 0 18 -5 29 -12 28 -7 -2 -14 8 -16
22 -2 14 -10 29 -18 33 -8 4 -14 15 -14 22 0 8 -7 15 -15 15 -10 0 -15 10 -15
30 0 20 5 30 15 30 8 0 15 -7 15 -15 0 -8 7 -15 15 -15 8 0 15 7 15 15 0 8 7
15 15 15 10 0 15 10 15 30 0 38 -18 40 -22 3 -2 -17 -10 -29 -20 -31 -15 -3
-18 4 -18 42 0 34 -4 46 -15 46 -8 0 -15 7 -15 15 0 8 7 15 15 15 9 0 18 -7
21 -15 10 -25 24 -17 24 15 0 23 4 30 20 30 11 0 20 -7 20 -15 0 -9 9 -15 25
-15 24 0 25 3 25 60 0 57 -1 60 -25 60 -21 0 -25 -5 -25 -30 0 -27 -3 -30 -30
-30 -20 0 -30 -5 -30 -15 0 -10 -11 -15 -35 -15 -24 0 -35 5 -35 15 0 8 -7 15
-15 15 -8 0 -15 9 -15 20 0 16 7 20 30 20 25 0 30 4 30 25 0 15 -6 25 -15 25
-9 0 -12 -6 -9 -15 5 -12 -2 -15 -30 -15 -25 0 -36 4 -36 15 0 10 -10 15 -30
15 -23 0 -30 4 -30 20 0 11 7 20 15 20 8 0 15 7 15 15 0 8 7 15 15 15 20 0 19
6 -5 30 -28 28 -40 25 -40 -10z m-32 -133 c2 -10 -3 -17 -12 -17 -18 0 -29 16
-21 31 9 14 29 6 33 -14z m90 -19 c18 -18 15 -28 -8 -28 -13 0 -20 7 -20 20 0
23 10 26 28 8z m-20 -75 c2 -8 -5 -13 -17 -13 -12 0 -21 6 -21 16 0 18 31 15
38 -3z m91 -13 c1 -14 7 -27 11 -30 5 -3 10 -19 12 -35 3 -27 0 -30 -25 -31
-15 -1 -31 5 -35 12 -4 6 -18 14 -32 16 -27 3 -42 38 -16 38 11 0 16 9 16 31
0 28 2 30 33 27 25 -2 33 -8 36 -28z m-69 -201 c0 -16 -5 -20 -27 -17 -17 2
-29 10 -31 21 -3 13 3 17 27 17 25 0 31 -4 31 -21z m100 1 c19 -19 27 -60 14
-73 -13 -12 -54 38 -54 66 0 32 13 34 40 7z"/>
<path d="M507 863 c-12 -11 -8 -23 8 -23 8 0 15 7 15 15 0 16 -12 20 -23 8z"/>
<path d="M780 1165 c0 -9 40 -45 50 -45 18 0 11 18 -10 25 -11 3 -20 11 -20
16 0 5 -4 9 -10 9 -5 0 -10 -2 -10 -5z"/>
<path d="M840 1160 c0 -5 7 -10 15 -10 8 0 15 5 15 10 0 6 -7 10 -15 10 -8 0
-15 -4 -15 -10z"/>
<path d="M110 1055 c0 -30 5 -55 10 -55 6 0 10 20 10 45 0 34 4 45 15 45 9 0
18 -7 21 -15 4 -8 10 -15 15 -15 5 0 9 7 9 15 0 8 7 15 15 15 8 0 15 5 15 10
0 6 -25 10 -55 10 l-55 0 0 -55z"/>
<path d="M750 1090 c0 -25 34 -60 58 -60 19 0 62 -41 62 -60 0 -23 25 -3 28
23 3 24 0 27 -27 27 -24 0 -31 4 -31 20 0 11 7 20 15 20 8 0 15 5 15 10 0 6
-13 10 -30 10 -21 0 -30 -5 -30 -16 0 -28 -35 -11 -38 19 -4 31 -22 37 -22 7z"/>
<path d="M900 1070 c0 -29 4 -40 15 -40 10 0 15 10 15 30 0 19 5 30 14 30 7 0
16 -13 20 -30 6 -34 26 -41 26 -10 0 28 -35 60 -65 60 -22 0 -25 -4 -25 -40z"/>
<path d="M194 1005 c3 -9 0 -15 -9 -15 -8 0 -15 -7 -15 -15 0 -8 -7 -15 -15
-15 -8 0 -15 -7 -15 -15 0 -8 -7 -15 -15 -15 -22 0 -18 -18 10 -44 14 -13 25
-31 25 -40 0 -12 -6 -15 -25 -10 -19 5 -25 2 -25 -10 0 -12 10 -16 40 -16 30
0 40 4 40 16 0 9 7 14 18 12 12 -2 18 -15 20 -46 4 -56 22 -54 22 3 0 43 1 45
30 45 21 0 30 5 30 16 0 12 -7 15 -26 11 -17 -3 -28 1 -32 12 -9 20 -52 24
-52 5 0 -8 -9 -14 -20 -14 -16 0 -20 7 -20 30 0 20 5 30 15 30 8 0 15 7 15 15
0 8 7 15 15 15 10 0 15 10 15 30 0 21 -5 30 -16 30 -10 0 -14 -6 -10 -15z"/>
<path d="M1330 1010 c0 -5 7 -10 15 -10 8 0 15 5 15 10 0 6 -7 10 -15 10 -8 0
-15 -4 -15 -10z"/>
<path d="M937 970 c-3 -11 3 -29 14 -41 24 -27 24 -29 -1 -29 -11 0 -20 7 -20
15 0 10 -10 15 -30 15 -20 0 -30 -5 -30 -15 0 -10 10 -15 30 -15 20 0 30 -5
30 -15 0 -10 10 -15 30 -15 27 0 30 3 30 30 0 20 -5 30 -15 30 -10 0 -15 10
-15 30 0 34 -15 40 -23 10z"/>
<path d="M230 950 c0 -5 9 -19 20 -30 24 -24 90 -28 90 -5 0 11 -12 15 -45 15
-33 0 -45 4 -45 15 0 8 -4 15 -10 15 -5 0 -10 -4 -10 -10z"/>
<path d="M660 855 c0 -8 5 -15 10 -15 6 0 10 7 10 15 0 8 -4 15 -10 15 -5 0
-10 -7 -10 -15z"/>
<path d="M110 753 c0 -32 1 -33 40 -33 28 0 40 4 40 14 0 9 -7 12 -21 9 -15
-4 -27 1 -40 18 l-19 24 0 -32z"/>
<path d="M1253 774 c-18 -8 -16 -24 2 -24 8 0 15 -7 15 -15 0 -10 10 -15 30
-15 20 0 30 5 30 15 0 8 7 15 16 15 9 0 14 6 12 13 -5 12 -82 20 -105 11z"/>
<path d="M1330 700 c0 -5 7 -10 15 -10 8 0 15 5 15 10 0 6 -7 10 -15 10 -8 0
-15 -4 -15 -10z"/>
<path d="M128 659 c-24 -25 -23 -29 7 -29 16 0 25 6 25 15 0 8 7 15 15 15 8 0
15 5 15 10 0 17 -44 9 -62 -11z"/>
<path d="M230 640 l0 -40 70 0 c54 0 72 -4 76 -15 4 -9 19 -15 35 -15 24 0 29
4 29 25 0 24 -2 24 -92 27 l-93 3 -3 28 c-5 42 -22 32 -22 -13z"/>
<path d="M1300 670 c0 -5 7 -10 15 -10 8 0 15 5 15 10 0 6 -7 10 -15 10 -8 0
-15 -4 -15 -10z"/>
<path d="M1330 635 c0 -10 -10 -15 -30 -15 -28 0 -30 -2 -30 -40 l0 -40 45 0
45 0 0 55 c0 42 -3 55 -15 55 -8 0 -15 -7 -15 -15z m-1 -48 c12 -15 5 -27 -16
-27 -7 0 -13 9 -13 20 0 23 13 26 29 7z"/>
<path d="M1180 610 c0 -5 5 -10 10 -10 6 0 10 5 10 10 0 6 -4 10 -10 10 -5 0
-10 -4 -10 -10z"/>
<path d="M690 540 c0 -58 1 -60 50 -110 28 -27 53 -50 55 -50 3 0 5 14 5 30 0
27 -3 30 -30 30 -20 0 -30 5 -30 15 0 8 -7 15 -15 15 -8 0 -15 7 -15 15 0 8 7
15 15 15 9 0 18 -7 21 -15 10 -25 24 -17 24 13 -1 17 -11 36 -30 52 -17 13
-30 30 -30 37 0 7 -4 13 -10 13 -6 0 -10 -27 -10 -60z"/>
<path d="M110 570 c0 -21 11 -38 43 -68 9 -9 17 -27 17 -39 0 -18 6 -23 25
-23 21 0 25 5 25 30 0 20 5 30 15 30 8 0 15 5 15 10 0 20 -41 50 -67 50 l-27
0 22 -20 c27 -26 28 -40 2 -40 -11 0 -20 6 -20 14 0 8 -7 16 -15 20 -8 3 -15
12 -15 21 0 8 7 15 15 15 8 0 15 5 15 10 0 6 -11 10 -25 10 -19 0 -25 -5 -25
-20z"/>
<path d="M1150 581 c0 -5 7 -11 15 -15 9 -3 15 -18 15 -36 0 -16 5 -30 10 -30
6 0 10 7 10 15 0 9 7 18 15 21 24 10 17 24 -10 24 -14 0 -28 7 -31 15 -7 16
-24 21 -24 6z"/>
<path d="M290 550 c0 -5 5 -10 10 -10 6 0 10 5 10 10 0 6 -4 10 -10 10 -5 0
-10 -4 -10 -10z"/>
<path d="M350 501 c0 -43 4 -60 15 -65 8 -3 15 -10 15 -16 0 -5 -7 -10 -15
-10 -11 0 -15 -12 -15 -46 0 -32 4 -44 13 -41 6 2 11 16 11 30 -1 24 2 27 32
27 36 0 49 -25 19 -36 -9 -4 -15 -19 -15 -35 0 -19 -5 -29 -15 -29 -9 0 -15
-9 -15 -25 0 -21 5 -25 30 -25 20 0 30 -5 30 -15 0 -8 6 -15 14 -15 7 0 16
-13 20 -30 6 -35 26 -41 26 -7 -1 12 -14 33 -30 47 -20 16 -30 33 -30 52 0 27
2 28 45 28 41 0 45 2 45 25 0 16 -6 25 -15 25 -8 0 -15 -4 -15 -10 0 -5 -7
-10 -15 -10 -10 0 -15 10 -15 30 0 20 5 30 15 30 8 0 15 7 15 16 0 27 35 11
38 -18 3 -21 9 -27 30 -30 36 -4 41 -40 10 -73 -13 -14 -27 -25 -33 -25 -6 0
-9 -23 -7 -55 4 -50 6 -55 28 -55 27 0 32 15 9 24 -9 3 -15 18 -15 36 0 27 3
30 30 30 20 0 30 5 30 15 0 8 7 15 15 15 8 0 15 7 15 15 0 8 -7 15 -15 15 -8
0 -15 7 -15 15 0 8 7 15 15 15 8 0 15 -7 15 -15 0 -8 7 -15 15 -15 9 0 18 -7
21 -15 4 -8 17 -15 30 -15 20 0 24 5 24 30 0 20 5 30 15 30 10 0 15 10 15 30
0 33 -15 41 -22 12 -7 -24 -59 -22 -68 2 -3 10 -10 17 -15 16 -5 -1 -12 5 -15
12 -3 10 -22 14 -60 13 -44 0 -55 3 -58 18 -2 10 3 17 12 17 11 0 16 9 16 29
0 16 6 31 15 35 25 9 17 26 -13 26 -26 0 -28 -3 -24 -29 4 -27 1 -30 -29 -33
-21 -2 -34 -8 -34 -17 0 -23 -26 -25 -32 -2 -3 12 -12 21 -19 21 -8 0 -14 7
-14 15 0 8 -7 15 -15 15 -8 0 -16 5 -16 10 -1 6 -3 15 -4 20 -1 6 -3 15 -4 20
0 6 -5 10 -11 10 -6 0 -10 -26 -10 -59z m123 -98 c9 -9 -13 -34 -24 -27 -14 8
-11 34 4 34 8 0 17 -3 20 -7z m245 -100 c2 -8 -5 -13 -17 -13 -12 0 -21 6 -21
16 0 18 31 15 38 -3z"/>
<path d="M505 550 c3 -5 10 -10 16 -10 5 0 9 5 9 10 0 6 -7 10 -16 10 -8 0
-12 -4 -9 -10z"/>
<path d="M440 514 c0 -17 22 -14 28 4 2 7 -3 12 -12 12 -9 0 -16 -7 -16 -16z"/>
<path d="M290 485 c0 -8 5 -15 10 -15 6 0 10 7 10 15 0 8 -4 15 -10 15 -5 0
-10 -7 -10 -15z"/>
<path d="M630 470 c0 -25 4 -30 25 -30 16 0 25 6 25 15 0 8 -7 15 -15 15 -8 0
-15 7 -15 15 0 8 -4 15 -10 15 -5 0 -10 -13 -10 -30z"/>
<path d="M1300 484 c0 -11 8 -14 27 -12 39 4 42 28 4 28 -21 0 -31 -5 -31 -16z"/>
<path d="M1150 460 c0 -10 36 -50 45 -50 3 0 5 14 5 30 0 25 -4 30 -25 30 -14
0 -25 -4 -25 -10z"/>
<path d="M110 425 c0 -8 5 -15 10 -15 6 0 10 7 10 15 0 8 -4 15 -10 15 -5 0
-10 -7 -10 -15z"/>
<path d="M260 425 c0 -9 9 -15 25 -15 16 0 25 6 25 15 0 9 -9 15 -25 15 -16 0
-25 -6 -25 -15z"/>
<path d="M170 394 c0 -8 11 -14 25 -14 14 0 28 -7 31 -15 8 -21 84 -21 84 0 0
11 -12 15 -45 15 -32 0 -45 4 -45 14 0 8 -10 14 -25 14 -15 0 -25 -6 -25 -14z"/>
<path d="M690 395 c0 -8 5 -15 10 -15 6 0 10 7 10 15 0 8 -4 15 -10 15 -5 0
-10 -7 -10 -15z"/>
<path d="M140 365 c0 -8 5 -15 10 -15 6 0 10 7 10 15 0 8 -4 15 -10 15 -5 0
-10 -7 -10 -15z"/>
<path d="M840 364 c0 -17 22 -14 28 4 2 7 -3 12 -12 12 -9 0 -16 -7 -16 -16z"/>
<path d="M900 365 c0 -8 7 -15 15 -15 8 0 15 7 15 15 0 8 -7 15 -15 15 -8 0
-15 -7 -15 -15z"/>
<path d="M110 215 l0 -105 100 0 100 0 0 103 0 102 -100 3 -100 2 0 -105z
m178 -8 l3 -78 -78 3 -78 3 -3 78 -3 78 78 -3 78 -3 3 -78z"/>
<path d="M203 253 c-43 -4 -43 -4 -43 -44 l0 -39 45 0 45 0 0 45 c0 25 -1 44
-2 43 -2 -1 -22 -3 -45 -5z"/>
<path d="M780 270 c0 -5 5 -10 10 -10 6 0 10 5 10 10 0 6 -4 10 -10 10 -5 0
-10 -4 -10 -10z"/>
<path d="M690 201 c0 -25 4 -30 28 -33 21 -2 28 -9 30 -30 3 -26 7 -28 48 -28
32 0 44 4 44 15 0 8 7 15 15 15 9 0 15 9 15 25 0 16 -6 25 -15 25 -8 0 -15 -7
-15 -16 0 -31 -35 -10 -38 24 -4 35 -22 45 -22 12 0 -12 -7 -20 -16 -20 -9 0
-18 9 -21 20 -3 13 -14 20 -29 20 -20 0 -24 -5 -24 -29z"/>
<path d="M350 166 c0 -56 0 -56 30 -56 20 0 30 5 30 15 0 8 7 15 15 15 9 0 15
9 15 25 0 16 -6 25 -15 25 -8 0 -15 -7 -15 -15 0 -8 -7 -15 -15 -15 -14 0 -17
5 -19 39 -1 8 -7 16 -14 19 -8 2 -12 -12 -12 -52z"/>
<path d="M1180 155 c0 -9 42 -47 47 -42 2 3 -5 15 -16 26 -21 21 -31 26 -31
16z"/>
<path d="M440 120 c0 -5 7 -10 15 -10 8 0 15 5 15 10 0 6 -7 10 -15 10 -8 0
-15 -4 -15 -10z"/>
<path d="M510 120 c0 -5 5 -10 10 -10 6 0 10 5 10 10 0 6 -4 10 -10 10 -5 0
-10 -4 -10 -10z"/>
<path d="M660 120 c0 -5 5 -10 10 -10 6 0 10 5 10 10 0 6 -4 10 -10 10 -5 0
-10 -4 -10 -10z"/>
<path d="M870 120 c0 -5 7 -10 15 -10 8 0 15 5 15 10 0 6 -7 10 -15 10 -8 0
-15 -4 -15 -10z"/>
<path d="M1030 120 c0 -5 25 -10 55 -10 30 0 55 5 55 10 0 6 -25 10 -55 10
-30 0 -55 -4 -55 -10z"/>
</g>
</svg>
