<svg id="svgQrWrapper" viewBox="0 0 300 300" xmlns="http://www.w3.org/2000/svg" xmlns:xlink="http://www.w3.org/1999/xlink" width="300" height="300" style="width: 100%; height: 100%; background-color: transparent;"><svg><g transform="translate(30, 18)scale(0.8)" fill="none"><svg width="300" height="300"><style>.background-color{ fill: #fff; }.dot-color{ fill: #0d0d0d; }.corners-square-color-0-0{ fill: #000000; }.corners-dot-color-0-0{ fill: #000000; }.corners-square-color-1-0{ fill: #000000; }.corners-dot-color-1-0{ fill: #000000; }.corners-square-color-0-1{ fill: #000000; }.corners-dot-color-0-1{ fill: #000000; }</style><defs/><g class="dot-color"><circle cx="5.5" cy="77.5" r="4.5" transform="rotate(0,5.5,77.5)"/><circle cx="5.5" cy="122.5" r="4.5" transform="rotate(0,5.5,122.5)"/><circle cx="5.5" cy="140.5" r="4.5" transform="rotate(0,5.5,140.5)"/><circle cx="5.5" cy="167.5" r="4.5" transform="rotate(0,5.5,167.5)"/><circle cx="5.5" cy="203.5" r="4.5" transform="rotate(0,5.5,203.5)"/><circle cx="5.5" cy="212.5" r="4.5" transform="rotate(0,5.5,212.5)"/><circle cx="5.5" cy="221.5" r="4.5" transform="rotate(0,5.5,221.5)"/><circle cx="14.5" cy="86.5" r="4.5" transform="rotate(0,14.5,86.5)"/><circle cx="14.5" cy="95.5" r="4.5" transform="rotate(0,14.5,95.5)"/><circle cx="14.5" cy="104.5" r="4.5" transform="rotate(0,14.5,104.5)"/><circle cx="14.5" cy="113.5" r="4.5" transform="rotate(0,14.5,113.5)"/><circle cx="14.5" cy="122.5" r="4.5" transform="rotate(0,14.5,122.5)"/><circle cx="14.5" cy="158.5" r="4.5" transform="rotate(0,14.5,158.5)"/><circle cx="14.5" cy="167.5" r="4.5" transform="rotate(0,14.5,167.5)"/><circle cx="14.5" cy="194.5" r="4.5" transform="rotate(0,14.5,194.5)"/><circle cx="14.5" cy="212.5" r="4.5" transform="rotate(0,14.5,212.5)"/><circle cx="23.5" cy="104.5" r="4.5" transform="rotate(0,23.5,104.5)"/><circle cx="23.5" cy="131.5" r="4.5" transform="rotate(0,23.5,131.5)"/><circle cx="23.5" cy="167.5" r="4.5" transform="rotate(0,23.5,167.5)"/><circle cx="23.5" cy="185.5" r="4.5" transform="rotate(0,23.5,185.5)"/><circle cx="23.5" cy="212.5" r="4.5" transform="rotate(0,23.5,212.5)"/><circle cx="23.5" cy="221.5" r="4.5" transform="rotate(0,23.5,221.5)"/><circle cx="32.5" cy="77.5" r="4.5" transform="rotate(0,32.5,77.5)"/><circle cx="32.5" cy="86.5" r="4.5" transform="rotate(0,32.5,86.5)"/><circle cx="32.5" cy="95.5" r="4.5" transform="rotate(0,32.5,95.5)"/><circle cx="32.5" cy="104.5" r="4.5" transform="rotate(0,32.5,104.5)"/><circle cx="32.5" cy="122.5" r="4.5" transform="rotate(0,32.5,122.5)"/><circle cx="32.5" cy="131.5" r="4.5" transform="rotate(0,32.5,131.5)"/><circle cx="32.5" cy="140.5" r="4.5" transform="rotate(0,32.5,140.5)"/><circle cx="32.5" cy="167.5" r="4.5" transform="rotate(0,32.5,167.5)"/><circle cx="32.5" cy="203.5" r="4.5" transform="rotate(0,32.5,203.5)"/><circle cx="41.5" cy="86.5" r="4.5" transform="rotate(0,41.5,86.5)"/><circle cx="41.5" cy="104.5" r="4.5" transform="rotate(0,41.5,104.5)"/><circle cx="41.5" cy="149.5" r="4.5" transform="rotate(0,41.5,149.5)"/><circle cx="41.5" cy="167.5" r="4.5" transform="rotate(0,41.5,167.5)"/><circle cx="50.5" cy="86.5" r="4.5" transform="rotate(0,50.5,86.5)"/><circle cx="50.5" cy="131.5" r="4.5" transform="rotate(0,50.5,131.5)"/><circle cx="50.5" cy="140.5" r="4.5" transform="rotate(0,50.5,140.5)"/><circle cx="50.5" cy="149.5" r="4.5" transform="rotate(0,50.5,149.5)"/><circle cx="50.5" cy="176.5" r="4.5" transform="rotate(0,50.5,176.5)"/><circle cx="50.5" cy="185.5" r="4.5" transform="rotate(0,50.5,185.5)"/><circle cx="50.5" cy="194.5" r="4.5" transform="rotate(0,50.5,194.5)"/><circle cx="59.5" cy="77.5" r="4.5" transform="rotate(0,59.5,77.5)"/><circle cx="59.5" cy="95.5" r="4.5" transform="rotate(0,59.5,95.5)"/><circle cx="59.5" cy="113.5" r="4.5" transform="rotate(0,59.5,113.5)"/><circle cx="59.5" cy="131.5" r="4.5" transform="rotate(0,59.5,131.5)"/><circle cx="59.5" cy="149.5" r="4.5" transform="rotate(0,59.5,149.5)"/><circle cx="59.5" cy="167.5" r="4.5" transform="rotate(0,59.5,167.5)"/><circle cx="59.5" cy="185.5" r="4.5" transform="rotate(0,59.5,185.5)"/><circle cx="59.5" cy="203.5" r="4.5" transform="rotate(0,59.5,203.5)"/><circle cx="59.5" cy="221.5" r="4.5" transform="rotate(0,59.5,221.5)"/><circle cx="68.5" cy="86.5" r="4.5" transform="rotate(0,68.5,86.5)"/><circle cx="68.5" cy="95.5" r="4.5" transform="rotate(0,68.5,95.5)"/><circle cx="68.5" cy="104.5" r="4.5" transform="rotate(0,68.5,104.5)"/><circle cx="68.5" cy="113.5" r="4.5" transform="rotate(0,68.5,113.5)"/><circle cx="68.5" cy="122.5" r="4.5" transform="rotate(0,68.5,122.5)"/><circle cx="68.5" cy="140.5" r="4.5" transform="rotate(0,68.5,140.5)"/><circle cx="68.5" cy="158.5" r="4.5" transform="rotate(0,68.5,158.5)"/><circle cx="68.5" cy="167.5" r="4.5" transform="rotate(0,68.5,167.5)"/><circle cx="68.5" cy="185.5" r="4.5" transform="rotate(0,68.5,185.5)"/><circle cx="68.5" cy="194.5" r="4.5" transform="rotate(0,68.5,194.5)"/><circle cx="68.5" cy="203.5" r="4.5" transform="rotate(0,68.5,203.5)"/><circle cx="68.5" cy="221.5" r="4.5" transform="rotate(0,68.5,221.5)"/><circle cx="77.5" cy="23.5" r="4.5" transform="rotate(0,77.5,23.5)"/><circle cx="77.5" cy="41.5" r="4.5" transform="rotate(0,77.5,41.5)"/><circle cx="77.5" cy="50.5" r="4.5" transform="rotate(0,77.5,50.5)"/><circle cx="77.5" cy="59.5" r="4.5" transform="rotate(0,77.5,59.5)"/><circle cx="77.5" cy="77.5" r="4.5" transform="rotate(0,77.5,77.5)"/><circle cx="77.5" cy="113.5" r="4.5" transform="rotate(0,77.5,113.5)"/><circle cx="77.5" cy="167.5" r="4.5" transform="rotate(0,77.5,167.5)"/><circle cx="77.5" cy="176.5" r="4.5" transform="rotate(0,77.5,176.5)"/><circle cx="77.5" cy="185.5" r="4.5" transform="rotate(0,77.5,185.5)"/><circle cx="77.5" cy="212.5" r="4.5" transform="rotate(0,77.5,212.5)"/><circle cx="77.5" cy="230.5" r="4.5" transform="rotate(0,77.5,230.5)"/><circle cx="77.5" cy="266.5" r="4.5" transform="rotate(0,77.5,266.5)"/><circle cx="77.5" cy="293.5" r="4.5" transform="rotate(0,77.5,293.5)"/><circle cx="86.5" cy="23.5" r="4.5" transform="rotate(0,86.5,23.5)"/><circle cx="86.5" cy="32.5" r="4.5" transform="rotate(0,86.5,32.5)"/><circle cx="86.5" cy="68.5" r="4.5" transform="rotate(0,86.5,68.5)"/><circle cx="86.5" cy="86.5" r="4.5" transform="rotate(0,86.5,86.5)"/><circle cx="86.5" cy="95.5" r="4.5" transform="rotate(0,86.5,95.5)"/><circle cx="86.5" cy="104.5" r="4.5" transform="rotate(0,86.5,104.5)"/><circle cx="86.5" cy="113.5" r="4.5" transform="rotate(0,86.5,113.5)"/><circle cx="86.5" cy="131.5" r="4.5" transform="rotate(0,86.5,131.5)"/><circle cx="86.5" cy="149.5" r="4.5" transform="rotate(0,86.5,149.5)"/><circle cx="86.5" cy="176.5" r="4.5" transform="rotate(0,86.5,176.5)"/><circle cx="86.5" cy="194.5" r="4.5" transform="rotate(0,86.5,194.5)"/><circle cx="86.5" cy="212.5" r="4.5" transform="rotate(0,86.5,212.5)"/><circle cx="86.5" cy="221.5" r="4.5" transform="rotate(0,86.5,221.5)"/><circle cx="86.5" cy="239.5" r="4.5" transform="rotate(0,86.5,239.5)"/><circle cx="86.5" cy="266.5" r="4.5" transform="rotate(0,86.5,266.5)"/><circle cx="86.5" cy="293.5" r="4.5" transform="rotate(0,86.5,293.5)"/><circle cx="95.5" cy="14.5" r="4.5" transform="rotate(0,95.5,14.5)"/><circle cx="95.5" cy="32.5" r="4.5" transform="rotate(0,95.5,32.5)"/><circle cx="95.5" cy="41.5" r="4.5" transform="rotate(0,95.5,41.5)"/><circle cx="95.5" cy="50.5" r="4.5" transform="rotate(0,95.5,50.5)"/><circle cx="95.5" cy="59.5" r="4.5" transform="rotate(0,95.5,59.5)"/><circle cx="95.5" cy="86.5" r="4.5" transform="rotate(0,95.5,86.5)"/><circle cx="95.5" cy="95.5" r="4.5" transform="rotate(0,95.5,95.5)"/><circle cx="95.5" cy="104.5" r="4.5" transform="rotate(0,95.5,104.5)"/><circle cx="95.5" cy="140.5" r="4.5" transform="rotate(0,95.5,140.5)"/><circle cx="95.5" cy="149.5" r="4.5" transform="rotate(0,95.5,149.5)"/><circle cx="95.5" cy="158.5" r="4.5" transform="rotate(0,95.5,158.5)"/><circle cx="95.5" cy="167.5" r="4.5" transform="rotate(0,95.5,167.5)"/><circle cx="95.5" cy="176.5" r="4.5" transform="rotate(0,95.5,176.5)"/><circle cx="95.5" cy="203.5" r="4.5" transform="rotate(0,95.5,203.5)"/><circle cx="95.5" cy="230.5" r="4.5" transform="rotate(0,95.5,230.5)"/><circle cx="95.5" cy="257.5" r="4.5" transform="rotate(0,95.5,257.5)"/><circle cx="95.5" cy="266.5" r="4.5" transform="rotate(0,95.5,266.5)"/><circle cx="95.5" cy="284.5" r="4.5" transform="rotate(0,95.5,284.5)"/><circle cx="95.5" cy="293.5" r="4.5" transform="rotate(0,95.5,293.5)"/><circle cx="104.5" cy="14.5" r="4.5" transform="rotate(0,104.5,14.5)"/><circle cx="104.5" cy="23.5" r="4.5" transform="rotate(0,104.5,23.5)"/><circle cx="104.5" cy="32.5" r="4.5" transform="rotate(0,104.5,32.5)"/><circle cx="104.5" cy="50.5" r="4.5" transform="rotate(0,104.5,50.5)"/><circle cx="104.5" cy="68.5" r="4.5" transform="rotate(0,104.5,68.5)"/><circle cx="104.5" cy="122.5" r="4.5" transform="rotate(0,104.5,122.5)"/><circle cx="104.5" cy="140.5" r="4.5" transform="rotate(0,104.5,140.5)"/><circle cx="104.5" cy="149.5" r="4.5" transform="rotate(0,104.5,149.5)"/><circle cx="104.5" cy="158.5" r="4.5" transform="rotate(0,104.5,158.5)"/><circle cx="104.5" cy="167.5" r="4.5" transform="rotate(0,104.5,167.5)"/><circle cx="104.5" cy="185.5" r="4.5" transform="rotate(0,104.5,185.5)"/><circle cx="104.5" cy="194.5" r="4.5" transform="rotate(0,104.5,194.5)"/><circle cx="104.5" cy="203.5" r="4.5" transform="rotate(0,104.5,203.5)"/><circle cx="104.5" cy="212.5" r="4.5" transform="rotate(0,104.5,212.5)"/><circle cx="104.5" cy="221.5" r="4.5" transform="rotate(0,104.5,221.5)"/><circle cx="113.5" cy="32.5" r="4.5" transform="rotate(0,113.5,32.5)"/><circle cx="113.5" cy="59.5" r="4.5" transform="rotate(0,113.5,59.5)"/><circle cx="113.5" cy="95.5" r="4.5" transform="rotate(0,113.5,95.5)"/><circle cx="113.5" cy="203.5" r="4.5" transform="rotate(0,113.5,203.5)"/><circle cx="113.5" cy="230.5" r="4.5" transform="rotate(0,113.5,230.5)"/><circle cx="113.5" cy="239.5" r="4.5" transform="rotate(0,113.5,239.5)"/><circle cx="113.5" cy="257.5" r="4.5" transform="rotate(0,113.5,257.5)"/><circle cx="113.5" cy="293.5" r="4.5" transform="rotate(0,113.5,293.5)"/><circle cx="122.5" cy="14.5" r="4.5" transform="rotate(0,122.5,14.5)"/><circle cx="122.5" cy="23.5" r="4.5" transform="rotate(0,122.5,23.5)"/><circle cx="122.5" cy="32.5" r="4.5" transform="rotate(0,122.5,32.5)"/><circle cx="122.5" cy="41.5" r="4.5" transform="rotate(0,122.5,41.5)"/><circle cx="122.5" cy="50.5" r="4.5" transform="rotate(0,122.5,50.5)"/><circle cx="122.5" cy="68.5" r="4.5" transform="rotate(0,122.5,68.5)"/><circle cx="122.5" cy="77.5" r="4.5" transform="rotate(0,122.5,77.5)"/><circle cx="122.5" cy="86.5" r="4.5" transform="rotate(0,122.5,86.5)"/><circle cx="122.5" cy="95.5" r="4.5" transform="rotate(0,122.5,95.5)"/><circle cx="122.5" cy="203.5" r="4.5" transform="rotate(0,122.5,203.5)"/><circle cx="122.5" cy="221.5" r="4.5" transform="rotate(0,122.5,221.5)"/><circle cx="122.5" cy="230.5" r="4.5" transform="rotate(0,122.5,230.5)"/><circle cx="122.5" cy="239.5" r="4.5" transform="rotate(0,122.5,239.5)"/><circle cx="122.5" cy="248.5" r="4.5" transform="rotate(0,122.5,248.5)"/><circle cx="122.5" cy="266.5" r="4.5" transform="rotate(0,122.5,266.5)"/><circle cx="122.5" cy="284.5" r="4.5" transform="rotate(0,122.5,284.5)"/><circle cx="122.5" cy="293.5" r="4.5" transform="rotate(0,122.5,293.5)"/><circle cx="131.5" cy="14.5" r="4.5" transform="rotate(0,131.5,14.5)"/><circle cx="131.5" cy="23.5" r="4.5" transform="rotate(0,131.5,23.5)"/><circle cx="131.5" cy="32.5" r="4.5" transform="rotate(0,131.5,32.5)"/><circle cx="131.5" cy="41.5" r="4.5" transform="rotate(0,131.5,41.5)"/><circle cx="131.5" cy="59.5" r="4.5" transform="rotate(0,131.5,59.5)"/><circle cx="131.5" cy="77.5" r="4.5" transform="rotate(0,131.5,77.5)"/><circle cx="131.5" cy="86.5" r="4.5" transform="rotate(0,131.5,86.5)"/><circle cx="131.5" cy="104.5" r="4.5" transform="rotate(0,131.5,104.5)"/><circle cx="131.5" cy="194.5" r="4.5" transform="rotate(0,131.5,194.5)"/><circle cx="131.5" cy="230.5" r="4.5" transform="rotate(0,131.5,230.5)"/><circle cx="131.5" cy="248.5" r="4.5" transform="rotate(0,131.5,248.5)"/><circle cx="131.5" cy="266.5" r="4.5" transform="rotate(0,131.5,266.5)"/><circle cx="131.5" cy="275.5" r="4.5" transform="rotate(0,131.5,275.5)"/><circle cx="131.5" cy="284.5" r="4.5" transform="rotate(0,131.5,284.5)"/><circle cx="131.5" cy="293.5" r="4.5" transform="rotate(0,131.5,293.5)"/><circle cx="140.5" cy="5.5" r="4.5" transform="rotate(0,140.5,5.5)"/><circle cx="140.5" cy="41.5" r="4.5" transform="rotate(0,140.5,41.5)"/><circle cx="140.5" cy="77.5" r="4.5" transform="rotate(0,140.5,77.5)"/><circle cx="140.5" cy="86.5" r="4.5" transform="rotate(0,140.5,86.5)"/><circle cx="140.5" cy="95.5" r="4.5" transform="rotate(0,140.5,95.5)"/><circle cx="140.5" cy="194.5" r="4.5" transform="rotate(0,140.5,194.5)"/><circle cx="140.5" cy="203.5" r="4.5" transform="rotate(0,140.5,203.5)"/><circle cx="140.5" cy="212.5" r="4.5" transform="rotate(0,140.5,212.5)"/><circle cx="140.5" cy="221.5" r="4.5" transform="rotate(0,140.5,221.5)"/><circle cx="140.5" cy="239.5" r="4.5" transform="rotate(0,140.5,239.5)"/><circle cx="149.5" cy="14.5" r="4.5" transform="rotate(0,149.5,14.5)"/><circle cx="149.5" cy="32.5" r="4.5" transform="rotate(0,149.5,32.5)"/><circle cx="149.5" cy="41.5" r="4.5" transform="rotate(0,149.5,41.5)"/><circle cx="149.5" cy="50.5" r="4.5" transform="rotate(0,149.5,50.5)"/><circle cx="149.5" cy="59.5" r="4.5" transform="rotate(0,149.5,59.5)"/><circle cx="149.5" cy="104.5" r="4.5" transform="rotate(0,149.5,104.5)"/><circle cx="149.5" cy="194.5" r="4.5" transform="rotate(0,149.5,194.5)"/><circle cx="149.5" cy="203.5" r="4.5" transform="rotate(0,149.5,203.5)"/><circle cx="149.5" cy="212.5" r="4.5" transform="rotate(0,149.5,212.5)"/><circle cx="149.5" cy="239.5" r="4.5" transform="rotate(0,149.5,239.5)"/><circle cx="149.5" cy="266.5" r="4.5" transform="rotate(0,149.5,266.5)"/><circle cx="149.5" cy="284.5" r="4.5" transform="rotate(0,149.5,284.5)"/><circle cx="158.5" cy="32.5" r="4.5" transform="rotate(0,158.5,32.5)"/><circle cx="158.5" cy="41.5" r="4.5" transform="rotate(0,158.5,41.5)"/><circle cx="158.5" cy="95.5" r="4.5" transform="rotate(0,158.5,95.5)"/><circle cx="158.5" cy="104.5" r="4.5" transform="rotate(0,158.5,104.5)"/><circle cx="158.5" cy="194.5" r="4.5" transform="rotate(0,158.5,194.5)"/><circle cx="158.5" cy="239.5" r="4.5" transform="rotate(0,158.5,239.5)"/><circle cx="158.5" cy="248.5" r="4.5" transform="rotate(0,158.5,248.5)"/><circle cx="158.5" cy="266.5" r="4.5" transform="rotate(0,158.5,266.5)"/><circle cx="158.5" cy="275.5" r="4.5" transform="rotate(0,158.5,275.5)"/><circle cx="158.5" cy="293.5" r="4.5" transform="rotate(0,158.5,293.5)"/><circle cx="167.5" cy="50.5" r="4.5" transform="rotate(0,167.5,50.5)"/><circle cx="167.5" cy="59.5" r="4.5" transform="rotate(0,167.5,59.5)"/><circle cx="167.5" cy="86.5" r="4.5" transform="rotate(0,167.5,86.5)"/><circle cx="167.5" cy="95.5" r="4.5" transform="rotate(0,167.5,95.5)"/><circle cx="167.5" cy="194.5" r="4.5" transform="rotate(0,167.5,194.5)"/><circle cx="167.5" cy="203.5" r="4.5" transform="rotate(0,167.5,203.5)"/><circle cx="167.5" cy="230.5" r="4.5" transform="rotate(0,167.5,230.5)"/><circle cx="167.5" cy="248.5" r="4.5" transform="rotate(0,167.5,248.5)"/><circle cx="167.5" cy="257.5" r="4.5" transform="rotate(0,167.5,257.5)"/><circle cx="167.5" cy="275.5" r="4.5" transform="rotate(0,167.5,275.5)"/><circle cx="167.5" cy="284.5" r="4.5" transform="rotate(0,167.5,284.5)"/><circle cx="167.5" cy="293.5" r="4.5" transform="rotate(0,167.5,293.5)"/><circle cx="176.5" cy="23.5" r="4.5" transform="rotate(0,176.5,23.5)"/><circle cx="176.5" cy="41.5" r="4.5" transform="rotate(0,176.5,41.5)"/><circle cx="176.5" cy="50.5" r="4.5" transform="rotate(0,176.5,50.5)"/><circle cx="176.5" cy="68.5" r="4.5" transform="rotate(0,176.5,68.5)"/><circle cx="176.5" cy="77.5" r="4.5" transform="rotate(0,176.5,77.5)"/><circle cx="176.5" cy="95.5" r="4.5" transform="rotate(0,176.5,95.5)"/><circle cx="176.5" cy="194.5" r="4.5" transform="rotate(0,176.5,194.5)"/><circle cx="176.5" cy="230.5" r="4.5" transform="rotate(0,176.5,230.5)"/><circle cx="176.5" cy="239.5" r="4.5" transform="rotate(0,176.5,239.5)"/><circle cx="176.5" cy="257.5" r="4.5" transform="rotate(0,176.5,257.5)"/><circle cx="185.5" cy="5.5" r="4.5" transform="rotate(0,185.5,5.5)"/><circle cx="185.5" cy="23.5" r="4.5" transform="rotate(0,185.5,23.5)"/><circle cx="185.5" cy="50.5" r="4.5" transform="rotate(0,185.5,50.5)"/><circle cx="185.5" cy="59.5" r="4.5" transform="rotate(0,185.5,59.5)"/><circle cx="185.5" cy="68.5" r="4.5" transform="rotate(0,185.5,68.5)"/><circle cx="185.5" cy="86.5" r="4.5" transform="rotate(0,185.5,86.5)"/><circle cx="185.5" cy="95.5" r="4.5" transform="rotate(0,185.5,95.5)"/><circle cx="185.5" cy="194.5" r="4.5" transform="rotate(0,185.5,194.5)"/><circle cx="185.5" cy="203.5" r="4.5" transform="rotate(0,185.5,203.5)"/><circle cx="185.5" cy="230.5" r="4.5" transform="rotate(0,185.5,230.5)"/><circle cx="185.5" cy="266.5" r="4.5" transform="rotate(0,185.5,266.5)"/><circle cx="185.5" cy="293.5" r="4.5" transform="rotate(0,185.5,293.5)"/><circle cx="194.5" cy="14.5" r="4.5" transform="rotate(0,194.5,14.5)"/><circle cx="194.5" cy="23.5" r="4.5" transform="rotate(0,194.5,23.5)"/><circle cx="194.5" cy="50.5" r="4.5" transform="rotate(0,194.5,50.5)"/><circle cx="194.5" cy="86.5" r="4.5" transform="rotate(0,194.5,86.5)"/><circle cx="194.5" cy="95.5" r="4.5" transform="rotate(0,194.5,95.5)"/><circle cx="194.5" cy="104.5" r="4.5" transform="rotate(0,194.5,104.5)"/><circle cx="194.5" cy="122.5" r="4.5" transform="rotate(0,194.5,122.5)"/><circle cx="194.5" cy="149.5" r="4.5" transform="rotate(0,194.5,149.5)"/><circle cx="194.5" cy="167.5" r="4.5" transform="rotate(0,194.5,167.5)"/><circle cx="194.5" cy="176.5" r="4.5" transform="rotate(0,194.5,176.5)"/><circle cx="194.5" cy="194.5" r="4.5" transform="rotate(0,194.5,194.5)"/><circle cx="194.5" cy="212.5" r="4.5" transform="rotate(0,194.5,212.5)"/><circle cx="194.5" cy="230.5" r="4.5" transform="rotate(0,194.5,230.5)"/><circle cx="194.5" cy="266.5" r="4.5" transform="rotate(0,194.5,266.5)"/><circle cx="194.5" cy="284.5" r="4.5" transform="rotate(0,194.5,284.5)"/><circle cx="194.5" cy="293.5" r="4.5" transform="rotate(0,194.5,293.5)"/><circle cx="203.5" cy="5.5" r="4.5" transform="rotate(0,203.5,5.5)"/><circle cx="203.5" cy="23.5" r="4.5" transform="rotate(0,203.5,23.5)"/><circle cx="203.5" cy="59.5" r="4.5" transform="rotate(0,203.5,59.5)"/><circle cx="203.5" cy="77.5" r="4.5" transform="rotate(0,203.5,77.5)"/><circle cx="203.5" cy="86.5" r="4.5" transform="rotate(0,203.5,86.5)"/><circle cx="203.5" cy="104.5" r="4.5" transform="rotate(0,203.5,104.5)"/><circle cx="203.5" cy="113.5" r="4.5" transform="rotate(0,203.5,113.5)"/><circle cx="203.5" cy="176.5" r="4.5" transform="rotate(0,203.5,176.5)"/><circle cx="203.5" cy="194.5" r="4.5" transform="rotate(0,203.5,194.5)"/><circle cx="203.5" cy="239.5" r="4.5" transform="rotate(0,203.5,239.5)"/><circle cx="203.5" cy="284.5" r="4.5" transform="rotate(0,203.5,284.5)"/><circle cx="203.5" cy="293.5" r="4.5" transform="rotate(0,203.5,293.5)"/><circle cx="212.5" cy="14.5" r="4.5" transform="rotate(0,212.5,14.5)"/><circle cx="212.5" cy="41.5" r="4.5" transform="rotate(0,212.5,41.5)"/><circle cx="212.5" cy="86.5" r="4.5" transform="rotate(0,212.5,86.5)"/><circle cx="212.5" cy="95.5" r="4.5" transform="rotate(0,212.5,95.5)"/><circle cx="212.5" cy="158.5" r="4.5" transform="rotate(0,212.5,158.5)"/><circle cx="212.5" cy="167.5" r="4.5" transform="rotate(0,212.5,167.5)"/><circle cx="212.5" cy="194.5" r="4.5" transform="rotate(0,212.5,194.5)"/><circle cx="212.5" cy="203.5" r="4.5" transform="rotate(0,212.5,203.5)"/><circle cx="212.5" cy="212.5" r="4.5" transform="rotate(0,212.5,212.5)"/><circle cx="212.5" cy="230.5" r="4.5" transform="rotate(0,212.5,230.5)"/><circle cx="212.5" cy="257.5" r="4.5" transform="rotate(0,212.5,257.5)"/><circle cx="212.5" cy="266.5" r="4.5" transform="rotate(0,212.5,266.5)"/><circle cx="212.5" cy="284.5" r="4.5" transform="rotate(0,212.5,284.5)"/><circle cx="212.5" cy="293.5" r="4.5" transform="rotate(0,212.5,293.5)"/><circle cx="221.5" cy="5.5" r="4.5" transform="rotate(0,221.5,5.5)"/><circle cx="221.5" cy="41.5" r="4.5" transform="rotate(0,221.5,41.5)"/><circle cx="221.5" cy="50.5" r="4.5" transform="rotate(0,221.5,50.5)"/><circle cx="221.5" cy="59.5" r="4.5" transform="rotate(0,221.5,59.5)"/><circle cx="221.5" cy="68.5" r="4.5" transform="rotate(0,221.5,68.5)"/><circle cx="221.5" cy="86.5" r="4.5" transform="rotate(0,221.5,86.5)"/><circle cx="221.5" cy="95.5" r="4.5" transform="rotate(0,221.5,95.5)"/><circle cx="221.5" cy="104.5" r="4.5" transform="rotate(0,221.5,104.5)"/><circle cx="221.5" cy="113.5" r="4.5" transform="rotate(0,221.5,113.5)"/><circle cx="221.5" cy="122.5" r="4.5" transform="rotate(0,221.5,122.5)"/><circle cx="221.5" cy="149.5" r="4.5" transform="rotate(0,221.5,149.5)"/><circle cx="221.5" cy="158.5" r="4.5" transform="rotate(0,221.5,158.5)"/><circle cx="221.5" cy="167.5" r="4.5" transform="rotate(0,221.5,167.5)"/><circle cx="221.5" cy="176.5" r="4.5" transform="rotate(0,221.5,176.5)"/><circle cx="221.5" cy="185.5" r="4.5" transform="rotate(0,221.5,185.5)"/><circle cx="221.5" cy="194.5" r="4.5" transform="rotate(0,221.5,194.5)"/><circle cx="221.5" cy="221.5" r="4.5" transform="rotate(0,221.5,221.5)"/><circle cx="221.5" cy="230.5" r="4.5" transform="rotate(0,221.5,230.5)"/><circle cx="221.5" cy="239.5" r="4.5" transform="rotate(0,221.5,239.5)"/><circle cx="221.5" cy="248.5" r="4.5" transform="rotate(0,221.5,248.5)"/><circle cx="221.5" cy="257.5" r="4.5" transform="rotate(0,221.5,257.5)"/><circle cx="221.5" cy="284.5" r="4.5" transform="rotate(0,221.5,284.5)"/><circle cx="230.5" cy="77.5" r="4.5" transform="rotate(0,230.5,77.5)"/><circle cx="230.5" cy="86.5" r="4.5" transform="rotate(0,230.5,86.5)"/><circle cx="230.5" cy="95.5" r="4.5" transform="rotate(0,230.5,95.5)"/><circle cx="230.5" cy="149.5" r="4.5" transform="rotate(0,230.5,149.5)"/><circle cx="230.5" cy="203.5" r="4.5" transform="rotate(0,230.5,203.5)"/><circle cx="230.5" cy="221.5" r="4.5" transform="rotate(0,230.5,221.5)"/><circle cx="230.5" cy="257.5" r="4.5" transform="rotate(0,230.5,257.5)"/><circle cx="230.5" cy="275.5" r="4.5" transform="rotate(0,230.5,275.5)"/><circle cx="230.5" cy="293.5" r="4.5" transform="rotate(0,230.5,293.5)"/><circle cx="239.5" cy="86.5" r="4.5" transform="rotate(0,239.5,86.5)"/><circle cx="239.5" cy="95.5" r="4.5" transform="rotate(0,239.5,95.5)"/><circle cx="239.5" cy="131.5" r="4.5" transform="rotate(0,239.5,131.5)"/><circle cx="239.5" cy="149.5" r="4.5" transform="rotate(0,239.5,149.5)"/><circle cx="239.5" cy="158.5" r="4.5" transform="rotate(0,239.5,158.5)"/><circle cx="239.5" cy="176.5" r="4.5" transform="rotate(0,239.5,176.5)"/><circle cx="239.5" cy="194.5" r="4.5" transform="rotate(0,239.5,194.5)"/><circle cx="239.5" cy="212.5" r="4.5" transform="rotate(0,239.5,212.5)"/><circle cx="239.5" cy="221.5" r="4.5" transform="rotate(0,239.5,221.5)"/><circle cx="239.5" cy="239.5" r="4.5" transform="rotate(0,239.5,239.5)"/><circle cx="239.5" cy="257.5" r="4.5" transform="rotate(0,239.5,257.5)"/><circle cx="239.5" cy="266.5" r="4.5" transform="rotate(0,239.5,266.5)"/><circle cx="239.5" cy="284.5" r="4.5" transform="rotate(0,239.5,284.5)"/><circle cx="239.5" cy="293.5" r="4.5" transform="rotate(0,239.5,293.5)"/><circle cx="248.5" cy="77.5" r="4.5" transform="rotate(0,248.5,77.5)"/><circle cx="248.5" cy="86.5" r="4.5" transform="rotate(0,248.5,86.5)"/><circle cx="248.5" cy="113.5" r="4.5" transform="rotate(0,248.5,113.5)"/><circle cx="248.5" cy="140.5" r="4.5" transform="rotate(0,248.5,140.5)"/><circle cx="248.5" cy="212.5" r="4.5" transform="rotate(0,248.5,212.5)"/><circle cx="248.5" cy="221.5" r="4.5" transform="rotate(0,248.5,221.5)"/><circle cx="248.5" cy="257.5" r="4.5" transform="rotate(0,248.5,257.5)"/><circle cx="248.5" cy="293.5" r="4.5" transform="rotate(0,248.5,293.5)"/><circle cx="257.5" cy="77.5" r="4.5" transform="rotate(0,257.5,77.5)"/><circle cx="257.5" cy="86.5" r="4.5" transform="rotate(0,257.5,86.5)"/><circle cx="257.5" cy="95.5" r="4.5" transform="rotate(0,257.5,95.5)"/><circle cx="257.5" cy="104.5" r="4.5" transform="rotate(0,257.5,104.5)"/><circle cx="257.5" cy="113.5" r="4.5" transform="rotate(0,257.5,113.5)"/><circle cx="257.5" cy="122.5" r="4.5" transform="rotate(0,257.5,122.5)"/><circle cx="257.5" cy="131.5" r="4.5" transform="rotate(0,257.5,131.5)"/><circle cx="257.5" cy="149.5" r="4.5" transform="rotate(0,257.5,149.5)"/><circle cx="257.5" cy="167.5" r="4.5" transform="rotate(0,257.5,167.5)"/><circle cx="257.5" cy="185.5" r="4.5" transform="rotate(0,257.5,185.5)"/><circle cx="257.5" cy="221.5" r="4.5" transform="rotate(0,257.5,221.5)"/><circle cx="257.5" cy="230.5" r="4.5" transform="rotate(0,257.5,230.5)"/><circle cx="257.5" cy="239.5" r="4.5" transform="rotate(0,257.5,239.5)"/><circle cx="257.5" cy="248.5" r="4.5" transform="rotate(0,257.5,248.5)"/><circle cx="257.5" cy="257.5" r="4.5" transform="rotate(0,257.5,257.5)"/><circle cx="257.5" cy="284.5" r="4.5" transform="rotate(0,257.5,284.5)"/><circle cx="266.5" cy="113.5" r="4.5" transform="rotate(0,266.5,113.5)"/><circle cx="266.5" cy="131.5" r="4.5" transform="rotate(0,266.5,131.5)"/><circle cx="266.5" cy="149.5" r="4.5" transform="rotate(0,266.5,149.5)"/><circle cx="266.5" cy="176.5" r="4.5" transform="rotate(0,266.5,176.5)"/><circle cx="266.5" cy="185.5" r="4.5" transform="rotate(0,266.5,185.5)"/><circle cx="266.5" cy="212.5" r="4.5" transform="rotate(0,266.5,212.5)"/><circle cx="266.5" cy="257.5" r="4.5" transform="rotate(0,266.5,257.5)"/><circle cx="275.5" cy="77.5" r="4.5" transform="rotate(0,275.5,77.5)"/><circle cx="275.5" cy="122.5" r="4.5" transform="rotate(0,275.5,122.5)"/><circle cx="275.5" cy="131.5" r="4.5" transform="rotate(0,275.5,131.5)"/><circle cx="275.5" cy="140.5" r="4.5" transform="rotate(0,275.5,140.5)"/><circle cx="275.5" cy="149.5" r="4.5" transform="rotate(0,275.5,149.5)"/><circle cx="275.5" cy="167.5" r="4.5" transform="rotate(0,275.5,167.5)"/><circle cx="275.5" cy="194.5" r="4.5" transform="rotate(0,275.5,194.5)"/><circle cx="275.5" cy="203.5" r="4.5" transform="rotate(0,275.5,203.5)"/><circle cx="275.5" cy="221.5" r="4.5" transform="rotate(0,275.5,221.5)"/><circle cx="275.5" cy="230.5" r="4.5" transform="rotate(0,275.5,230.5)"/><circle cx="275.5" cy="248.5" r="4.5" transform="rotate(0,275.5,248.5)"/><circle cx="275.5" cy="257.5" r="4.5" transform="rotate(0,275.5,257.5)"/><circle cx="275.5" cy="293.5" r="4.5" transform="rotate(0,275.5,293.5)"/><circle cx="284.5" cy="86.5" r="4.5" transform="rotate(0,284.5,86.5)"/><circle cx="284.5" cy="113.5" r="4.5" transform="rotate(0,284.5,113.5)"/><circle cx="284.5" cy="122.5" r="4.5" transform="rotate(0,284.5,122.5)"/><circle cx="284.5" cy="140.5" r="4.5" transform="rotate(0,284.5,140.5)"/><circle cx="284.5" cy="149.5" r="4.5" transform="rotate(0,284.5,149.5)"/><circle cx="284.5" cy="158.5" r="4.5" transform="rotate(0,284.5,158.5)"/><circle cx="284.5" cy="167.5" r="4.5" transform="rotate(0,284.5,167.5)"/><circle cx="284.5" cy="212.5" r="4.5" transform="rotate(0,284.5,212.5)"/><circle cx="284.5" cy="221.5" r="4.5" transform="rotate(0,284.5,221.5)"/><circle cx="284.5" cy="248.5" r="4.5" transform="rotate(0,284.5,248.5)"/><circle cx="284.5" cy="284.5" r="4.5" transform="rotate(0,284.5,284.5)"/><circle cx="293.5" cy="95.5" r="4.5" transform="rotate(0,293.5,95.5)"/><circle cx="293.5" cy="104.5" r="4.5" transform="rotate(0,293.5,104.5)"/><circle cx="293.5" cy="113.5" r="4.5" transform="rotate(0,293.5,113.5)"/><circle cx="293.5" cy="131.5" r="4.5" transform="rotate(0,293.5,131.5)"/><circle cx="293.5" cy="167.5" r="4.5" transform="rotate(0,293.5,167.5)"/><circle cx="293.5" cy="221.5" r="4.5" transform="rotate(0,293.5,221.5)"/><circle cx="293.5" cy="230.5" r="4.5" transform="rotate(0,293.5,230.5)"/><circle cx="293.5" cy="239.5" r="4.5" transform="rotate(0,293.5,239.5)"/><circle cx="293.5" cy="248.5" r="4.5" transform="rotate(0,293.5,248.5)"/><circle cx="293.5" cy="257.5" r="4.5" transform="rotate(0,293.5,257.5)"/><circle cx="293.5" cy="284.5" r="4.5" transform="rotate(0,293.5,284.5)"/><circle cx="293.5" cy="293.5" r="4.5" transform="rotate(0,293.5,293.5)"/></g><g class="corners-square-color-0-0"><path clip-rule="evenodd" d="M28.17316 1.8929642366863908C30.42700923076923 0.12550795976331353, 33.59658769230769 0.12550989822485215, 35.85043692307693 1.8929642366863908L38.46503384615385 3.943255621301774L41.71021230769231 3.230425159763313C44.5078 2.615913467455621, 47.36334769230769 3.9910774674556206, 48.62703076923077 6.561419313609467L50.09308923076923 9.543083313609467L53.32624923076923 10.308891928994083C56.11336923076923 10.969054390532545, 58.089436923076924 13.447028544378698, 58.11289230769231 16.311163621301773L58.14003076923077 19.63355100591716L60.72070461538461 21.726314082840236C62.945476923076924 23.530440236686392, 63.65068923076923 26.620347928994082, 62.42907076923077 29.21110177514793L61.01205538461539 32.216298698224854L62.42907076923077 35.22149562130178C63.65068923076923 37.81224946745562, 62.945476923076924 40.90215715976331, 60.72070461538461 42.70628331360947L58.14003076923077 44.799046390532546L58.11289230769231 48.121569467455615C58.089436923076924 50.985646390532544, 56.11336923076923 53.46358177514793, 53.32624923076923 54.12382177514793L50.09308923076923 54.889514082840236L48.62703076923077 57.87125562130178C47.36334769230769 60.44165562130178, 44.5078 61.81680023668639, 41.71021230769231 61.20230792899408L38.46503384615385 60.48934177514793L35.85043692307693 62.5396525443787C33.59658769230769 64.30714177514794, 30.42700923076923 64.30714177514794, 28.17316 62.5396525443787L25.55856307692308 60.48934177514793L22.313384615384614 61.20230792899408C19.515893846153848 61.81680023668639, 16.660346153846152 60.44165562130178, 15.396527384615384 57.87125562130178L13.930488307692308 54.889514082840236L10.697367076923076 54.12382177514793C7.910227692307692 53.46358177514793, 5.9341406153846155 50.985646390532544, 5.910724 48.121569467455615L5.883546769230769 44.799046390532546L3.302872923076923 42.70628331360947C1.0781923046153845 40.90215715976331, 0.3729328923076922 37.81224946745562, 1.594539723076923 35.22149562130178L3.0116384615384613 32.216298698224854L1.594539723076923 29.21110177514793C0.3729309538461538 26.620347928994082, 1.0781973446153845 23.530440236686392, 3.302872923076923 21.726314082840236L5.883546769230769 19.63355100591716L5.910724 16.311163621301773C5.9341406153846155 13.447009159763313, 7.910247076923077 10.969054390532545, 10.697367076923076 10.308891928994083L13.930488307692308 9.543083313609467L15.396527384615384 6.561419313609467C16.660346153846152 3.9910774674556206, 19.515893846153848 2.615913467455621, 22.313384615384614 3.230425159763313L25.55856307692308 3.943255621301774L28.17316 1.8929642366863908M32.011895384615386 8.937721159763313L29.813486153846156 10.661653159763315C28.351886153846152 11.80782669822485, 26.45452 12.240898390532545, 24.640313846153845 11.84238946745562L21.911541538461538 11.243017159763314L20.678873846153845 13.75006823668639C19.859331076923077 15.416931928994082, 18.33777446153846 16.630331313609467, 16.53033353846154 17.058440544378698L13.811854461538461 17.70235869822485L13.789 20.4959725443787C13.773821846153846 22.353406390532545, 12.929428 24.106744852071007, 11.486728 25.276606390532546L9.316833538461538 27.03634177514793L10.508347692307693 29.56332023668639C11.300558153846154 31.24319100591716, 11.300558153846154 33.18940639053254, 10.508347692307693 34.86947100591716L9.316833538461538 37.396255621301776L11.486728 39.15599100591716L8.994913230769232 42.228646390532546L11.486728 39.15599100591716C12.929428 40.3258525443787, 13.773821846153846 42.07938485207101, 13.789 43.936624852071006L13.811854461538461 46.730335621301776L16.53033353846154 47.374292544378704C18.33777446153846 47.802304852071, 19.859331076923077 49.01578177514793, 20.678873846153845 50.68266485207101L21.911541538461538 53.18967715976331L24.640313846153845 52.59030485207101C26.45452 52.19175715976331, 28.351886153846152 52.62480946745562, 29.813486153846156 53.77102177514793L32.011895384615386 55.49489562130178L34.21011076923077 53.77102177514793C35.671710769230764 52.62480946745562, 37.56907692307692 52.19175715976331, 39.38328307692307 52.59030485207101L42.11205538461539 53.18967715976331L43.344723076923074 50.68266485207101C44.164304615384616 49.01578177514793, 45.68580307692307 47.802304852071, 47.49322461538462 47.374292544378704L50.21172307692308 46.730335621301776L50.23459692307693 43.936624852071006C50.249716923076925 42.07938485207101, 51.09411076923077 40.3258525443787, 52.53690769230769 39.15599100591716L54.70682153846154 37.396255621301776L53.51524923076923 34.86947100591716C52.723 33.18940639053254, 52.723 31.24319100591716, 53.51524923076923 29.56332023668639L54.70682153846154 27.03634177514793L52.53690769230769 25.27680023668639C51.09411076923077 24.106744852071007, 50.249716923076925 22.353406390532545, 50.23459692307693 20.4959725443787L50.21172307692308 17.70235869822485L47.49322461538462 17.058440544378698C45.68580307692307 16.630331313609467, 44.164304615384616 15.416931928994082, 43.344723076923074 13.750087621301775L42.11205538461539 11.243017159763314L39.38328307692307 11.84238946745562C37.56907692307692 12.240898390532545, 35.67190461538461 11.807846082840237, 34.21011076923077 10.661653159763315L32.011895384615386 8.937721159763313Z" transform="rotate(0,32.5,32.5)"/></g><g class="corners-dot-color-0-0"><circle cx="23.5" cy="23.5" r="4.5" transform="rotate(0,23.5,23.5)"/><circle cx="23.5" cy="32.5" r="4.5" transform="rotate(0,23.5,32.5)"/><circle cx="23.5" cy="41.5" r="4.5" transform="rotate(0,23.5,41.5)"/><circle cx="32.5" cy="23.5" r="4.5" transform="rotate(0,32.5,23.5)"/><circle cx="32.5" cy="32.5" r="4.5" transform="rotate(0,32.5,32.5)"/><circle cx="32.5" cy="41.5" r="4.5" transform="rotate(0,32.5,41.5)"/><circle cx="41.5" cy="23.5" r="4.5" transform="rotate(0,41.5,23.5)"/><circle cx="41.5" cy="32.5" r="4.5" transform="rotate(0,41.5,32.5)"/><circle cx="41.5" cy="41.5" r="4.5" transform="rotate(0,41.5,41.5)"/></g><g class="corners-square-color-1-0"><path clip-rule="evenodd" d="M262.17316 1.8929642366863908C264.4270092307692 0.12550795976331353, 267.5965876923077 0.12550989822485215, 269.8504369230769 1.8929642366863908L272.46503384615386 3.943255621301774L275.7102123076923 3.230425159763313C278.5078 2.615913467455621, 281.3633476923077 3.9910774674556206, 282.62703076923077 6.561419313609467L284.09308923076924 9.543083313609467L287.32624923076924 10.308891928994083C290.11336923076925 10.969054390532545, 292.0894369230769 13.447028544378698, 292.11289230769233 16.311163621301773L292.14003076923075 19.63355100591716L294.7207046153846 21.726314082840236C296.9454769230769 23.530440236686392, 297.6506892307692 26.620347928994082, 296.42907076923075 29.21110177514793L295.0120553846154 32.216298698224854L296.42907076923075 35.22149562130178C297.6506892307692 37.81224946745562, 296.9454769230769 40.90215715976331, 294.7207046153846 42.70628331360947L292.14003076923075 44.799046390532546L292.11289230769233 48.121569467455615C292.0894369230769 50.985646390532544, 290.11336923076925 53.46358177514793, 287.32624923076924 54.12382177514793L284.09308923076924 54.889514082840236L282.62703076923077 57.87125562130178C281.3633476923077 60.44165562130178, 278.5078 61.81680023668639, 275.7102123076923 61.20230792899408L272.46503384615386 60.48934177514793L269.8504369230769 62.5396525443787C267.5965876923077 64.30714177514794, 264.4270092307692 64.30714177514794, 262.17316 62.5396525443787L259.55856307692306 60.48934177514793L256.3133846153846 61.20230792899408C253.51589384615386 61.81680023668639, 250.66034615384615 60.44165562130178, 249.39652738461538 57.87125562130178L247.93048830769231 54.889514082840236L244.6973670769231 54.12382177514793C241.9102276923077 53.46358177514793, 239.93414061538462 50.985646390532544, 239.910724 48.121569467455615L239.88354676923078 44.799046390532546L237.30287292307693 42.70628331360947C235.07819230461538 40.90215715976331, 234.3729328923077 37.81224946745562, 235.59453972307693 35.22149562130178L237.01163846153847 32.216298698224854L235.59453972307693 29.21110177514793C234.37293095384615 26.620347928994082, 235.07819734461538 23.530440236686392, 237.30287292307693 21.726314082840236L239.88354676923078 19.63355100591716L239.910724 16.311163621301773C239.93414061538462 13.447009159763313, 241.91024707692307 10.969054390532545, 244.6973670769231 10.308891928994083L247.93048830769231 9.543083313609467L249.39652738461538 6.561419313609467C250.66034615384615 3.9910774674556206, 253.51589384615386 2.615913467455621, 256.3133846153846 3.230425159763313L259.55856307692306 3.943255621301774L262.17316 1.8929642366863908M266.0118953846154 8.937721159763313L263.81348615384616 10.661653159763315C262.3518861538462 11.80782669822485, 260.45452 12.240898390532545, 258.64031384615384 11.84238946745562L255.91154153846153 11.243017159763314L254.67887384615383 13.75006823668639C253.85933107692307 15.416931928994082, 252.33777446153846 16.630331313609467, 250.53033353846155 17.058440544378698L247.81185446153847 17.70235869822485L247.789 20.4959725443787C247.77382184615385 22.353406390532545, 246.929428 24.106744852071007, 245.486728 25.276606390532546L243.31683353846154 27.03634177514793L244.5083476923077 29.56332023668639C245.30055815384617 31.24319100591716, 245.30055815384617 33.18940639053254, 244.5083476923077 34.86947100591716L243.31683353846154 37.396255621301776L245.486728 39.15599100591716L242.99491323076924 42.228646390532546L245.486728 39.15599100591716C246.929428 40.3258525443787, 247.77382184615385 42.07938485207101, 247.789 43.936624852071006L247.81185446153847 46.730335621301776L250.53033353846155 47.374292544378704C252.33777446153846 47.802304852071, 253.85933107692307 49.01578177514793, 254.67887384615383 50.68266485207101L255.91154153846153 53.18967715976331L258.64031384615384 52.59030485207101C260.45452 52.19175715976331, 262.3518861538462 52.62480946745562, 263.81348615384616 53.77102177514793L266.0118953846154 55.49489562130178L268.21011076923077 53.77102177514793C269.67171076923074 52.62480946745562, 271.5690769230769 52.19175715976331, 273.3832830769231 52.59030485207101L276.11205538461536 53.18967715976331L277.34472307692306 50.68266485207101C278.1643046153846 49.01578177514793, 279.6858030769231 47.802304852071, 281.49322461538463 47.374292544378704L284.2117230769231 46.730335621301776L284.23459692307694 43.936624852071006C284.2497169230769 42.07938485207101, 285.0941107692308 40.3258525443787, 286.5369076923077 39.15599100591716L288.70682153846155 37.396255621301776L287.5152492307692 34.86947100591716C286.723 33.18940639053254, 286.723 31.24319100591716, 287.5152492307692 29.56332023668639L288.70682153846155 27.03634177514793L286.5369076923077 25.27680023668639C285.0941107692308 24.106744852071007, 284.2497169230769 22.353406390532545, 284.23459692307694 20.4959725443787L284.2117230769231 17.70235869822485L281.49322461538463 17.058440544378698C279.6858030769231 16.630331313609467, 278.1643046153846 15.416931928994082, 277.34472307692306 13.750087621301775L276.11205538461536 11.243017159763314L273.3832830769231 11.84238946745562C271.5690769230769 12.240898390532545, 269.6719046153846 11.807846082840237, 268.21011076923077 10.661653159763315L266.0118953846154 8.937721159763313Z" transform="rotate(0,266.5,32.5)"/></g><g class="corners-dot-color-1-0"><circle cx="257.5" cy="23.5" r="4.5" transform="rotate(0,257.5,23.5)"/><circle cx="257.5" cy="32.5" r="4.5" transform="rotate(0,257.5,32.5)"/><circle cx="257.5" cy="41.5" r="4.5" transform="rotate(0,257.5,41.5)"/><circle cx="266.5" cy="23.5" r="4.5" transform="rotate(0,266.5,23.5)"/><circle cx="266.5" cy="32.5" r="4.5" transform="rotate(0,266.5,32.5)"/><circle cx="266.5" cy="41.5" r="4.5" transform="rotate(0,266.5,41.5)"/><circle cx="275.5" cy="23.5" r="4.5" transform="rotate(0,275.5,23.5)"/><circle cx="275.5" cy="32.5" r="4.5" transform="rotate(0,275.5,32.5)"/><circle cx="275.5" cy="41.5" r="4.5" transform="rotate(0,275.5,41.5)"/></g><g class="corners-square-color-0-1"><path clip-rule="evenodd" d="M28.17316 235.8929642366864C30.42700923076923 234.12550795976333, 33.59658769230769 234.12550989822486, 35.85043692307693 235.8929642366864L38.46503384615385 237.94325562130177L41.71021230769231 237.2304251597633C44.5078 236.61591346745564, 47.36334769230769 237.99107746745563, 48.62703076923077 240.56141931360946L50.09308923076923 243.5430833136095L53.32624923076923 244.3088919289941C56.11336923076923 244.96905439053256, 58.089436923076924 247.4470285443787, 58.11289230769231 250.31116362130177L58.14003076923077 253.63355100591716L60.72070461538461 255.72631408284022C62.945476923076924 257.5304402366864, 63.65068923076923 260.6203479289941, 62.42907076923077 263.21110177514794L61.01205538461539 266.2162986982248L62.42907076923077 269.22149562130176C63.65068923076923 271.8122494674556, 62.945476923076924 274.9021571597633, 60.72070461538461 276.70628331360945L58.14003076923077 278.7990463905325L58.11289230769231 282.1215694674556C58.089436923076924 284.9856463905325, 56.11336923076923 287.46358177514793, 53.32624923076923 288.1238217751479L50.09308923076923 288.8895140828402L48.62703076923077 291.87125562130177C47.36334769230769 294.4416556213018, 44.5078 295.8168002366864, 41.71021230769231 295.20230792899406L38.46503384615385 294.4893417751479L35.85043692307693 296.53965254437867C33.59658769230769 298.3071417751479, 30.42700923076923 298.3071417751479, 28.17316 296.53965254437867L25.55856307692308 294.4893417751479L22.313384615384614 295.20230792899406C19.515893846153848 295.8168002366864, 16.660346153846152 294.4416556213018, 15.396527384615384 291.87125562130177L13.930488307692308 288.8895140828402L10.697367076923076 288.1238217751479C7.910227692307692 287.46358177514793, 5.9341406153846155 284.9856463905325, 5.910724 282.1215694674556L5.883546769230769 278.7990463905325L3.302872923076923 276.70628331360945C1.0781923046153845 274.9021571597633, 0.3729328923076922 271.8122494674556, 1.594539723076923 269.22149562130176L3.0116384615384613 266.2162986982248L1.594539723076923 263.21110177514794C0.3729309538461538 260.6203479289941, 1.0781973446153845 257.5304402366864, 3.302872923076923 255.72631408284022L5.883546769230769 253.63355100591716L5.910724 250.31116362130177C5.9341406153846155 247.44700915976333, 7.910247076923077 244.96905439053256, 10.697367076923076 244.3088919289941L13.930488307692308 243.5430833136095L15.396527384615384 240.56141931360946C16.660346153846152 237.99107746745563, 19.515893846153848 236.61591346745564, 22.313384615384614 237.2304251597633L25.55856307692308 237.94325562130177L28.17316 235.8929642366864M32.011895384615386 242.93772115976333L29.813486153846156 244.66165315976332C28.351886153846152 245.80782669822486, 26.45452 246.24089839053255, 24.640313846153845 245.84238946745563L21.911541538461538 245.24301715976333L20.678873846153845 247.7500682366864C19.859331076923077 249.4169319289941, 18.33777446153846 250.63033131360947, 16.53033353846154 251.0584405443787L13.811854461538461 251.70235869822486L13.789 254.4959725443787C13.773821846153846 256.35340639053254, 12.929428 258.10674485207096, 11.486728 259.27660639053255L9.316833538461538 261.0363417751479L10.508347692307693 263.56332023668637C11.300558153846154 265.24319100591714, 11.300558153846154 267.1894063905325, 10.508347692307693 268.86947100591715L9.316833538461538 271.39625562130175L11.486728 273.15599100591714L8.994913230769232 276.2286463905325L11.486728 273.15599100591714C12.929428 274.3258525443787, 13.773821846153846 276.079384852071, 13.789 277.93662485207096L13.811854461538461 280.7303356213018L16.53033353846154 281.3742925443787C18.33777446153846 281.80230485207096, 19.859331076923077 283.0157817751479, 20.678873846153845 284.682664852071L21.911541538461538 287.1896771597633L24.640313846153845 286.590304852071C26.45452 286.1917571597633, 28.351886153846152 286.6248094674556, 29.813486153846156 287.7710217751479L32.011895384615386 289.49489562130174L34.21011076923077 287.7710217751479C35.671710769230764 286.6248094674556, 37.56907692307692 286.1917571597633, 39.38328307692307 286.590304852071L42.11205538461539 287.1896771597633L43.344723076923074 284.682664852071C44.164304615384616 283.0157817751479, 45.68580307692307 281.80230485207096, 47.49322461538462 281.3742925443787L50.21172307692308 280.7303356213018L50.23459692307693 277.93662485207096C50.249716923076925 276.079384852071, 51.09411076923077 274.3258525443787, 52.53690769230769 273.15599100591714L54.70682153846154 271.39625562130175L53.51524923076923 268.86947100591715C52.723 267.1894063905325, 52.723 265.24319100591714, 53.51524923076923 263.56332023668637L54.70682153846154 261.0363417751479L52.53690769230769 259.27680023668637C51.09411076923077 258.10674485207096, 50.249716923076925 256.35340639053254, 50.23459692307693 254.4959725443787L50.21172307692308 251.70235869822486L47.49322461538462 251.0584405443787C45.68580307692307 250.63033131360947, 44.164304615384616 249.4169319289941, 43.344723076923074 247.7500876213018L42.11205538461539 245.24301715976333L39.38328307692307 245.84238946745563C37.56907692307692 246.24089839053255, 35.67190461538461 245.80784608284026, 34.21011076923077 244.66165315976332L32.011895384615386 242.93772115976333Z" transform="rotate(0,32.5,266.5)"/></g><g class="corners-dot-color-0-1"><circle cx="23.5" cy="257.5" r="4.5" transform="rotate(0,23.5,257.5)"/><circle cx="23.5" cy="266.5" r="4.5" transform="rotate(0,23.5,266.5)"/><circle cx="23.5" cy="275.5" r="4.5" transform="rotate(0,23.5,275.5)"/><circle cx="32.5" cy="257.5" r="4.5" transform="rotate(0,32.5,257.5)"/><circle cx="32.5" cy="266.5" r="4.5" transform="rotate(0,32.5,266.5)"/><circle cx="32.5" cy="275.5" r="4.5" transform="rotate(0,32.5,275.5)"/><circle cx="41.5" cy="257.5" r="4.5" transform="rotate(0,41.5,257.5)"/><circle cx="41.5" cy="266.5" r="4.5" transform="rotate(0,41.5,266.5)"/><circle cx="41.5" cy="275.5" r="4.5" transform="rotate(0,41.5,275.5)"/></g><svg id="telegramLogotype" xmlns="http://www.w3.org/2000/svg" viewBox="0 0 50 50" x="111" y="111" width="77px" height="77px"><path fill="#08C" d="M50 25c0 13.807-11.193 25-25 25S0 38.807 0 25 11.193 0 25 0s25 11.193 25 25Zm-24.104-6.544c-2.432 1.012-7.291 3.105-14.58 6.28-1.183.47-1.803.931-1.86 1.381-.095.761.858 1.06 2.155 1.469.177.055.36.113.547.174 1.277.415 2.994.9 3.886.92.81.017 1.714-.317 2.712-1.002 6.809-4.597 10.324-6.92 10.545-6.97.155-.035.371-.08.517.05.147.13.132.376.117.442-.095.402-3.835 3.88-5.77 5.679-.603.56-1.031.959-1.119 1.05-.196.203-.396.396-.588.58-1.185 1.144-2.075 2.001.05 3.401 1.02.673 1.838 1.23 2.652 1.784.89.606 1.778 1.21 2.927 1.964.292.191.572.39.844.585 1.036.738 1.966 1.402 3.116 1.296.668-.062 1.358-.69 1.709-2.563.828-4.428 2.456-14.02 2.832-17.974a4.413 4.413 0 0 0-.042-.984c-.033-.195-.103-.472-.355-.677-.3-.243-.763-.294-.97-.29-.94.016-2.382.518-9.325 3.405Z"/></svg></svg></g></svg><g transform="translate(150,295)"><style>
          .small887{
            fill:#0d0d0d;
            font-size:20px;
            font-family: Roboto, sans-serif;
          }
        </style><text x="0" y="-11" text-anchor="middle" class="small887">Huerta la Curtia</text></g></svg>